<?xml version="1.0" standalone="no"?>
<!DOCTYPE svg PUBLIC "-//W3C//DTD SVG 20010904//EN"
 "http://www.w3.org/TR/2001/REC-SVG-20010904/DTD/svg10.dtd">
<svg version="1.0" xmlns="http://www.w3.org/2000/svg"
 width="700.000000pt" height="700.000000pt" viewBox="0 0 700.000000 700.000000"
 preserveAspectRatio="xMidYMid meet">
<metadata>
Created by potrace 1.14, written by Peter Selinger 2001-2017
</metadata>
<g transform="translate(0.000000,700.000000) scale(0.100000,-0.100000)"
fill="#000000" stroke="none">
<path d="M5636 6984 c-191 -35 -394 -123 -526 -229 -33 -26 -179 -173 -205
-205 -73 -92 -148 -233 -189 -356 -27 -83 -29 -88 -41 -164 -4 -25 -9 -54 -11
-65 -8 -36 -7 -209 0 -275 24 -213 143 -482 281 -635 20 -22 48 -53 62 -70 15
-16 58 -66 97 -110 39 -44 85 -96 102 -115 57 -64 226 -254 263 -295 20 -22
67 -76 105 -120 39 -44 75 -84 80 -90 6 -5 40 -44 76 -85 36 -41 72 -83 81
-93 16 -17 20 -14 85 59 38 42 78 87 89 99 11 13 47 54 80 91 33 37 69 78 80
90 11 12 33 37 49 55 121 138 261 296 270 304 6 6 40 44 76 85 35 41 67 77 70
80 36 35 148 171 185 225 82 119 158 297 182 424 18 98 21 142 18 271 -7 267
-85 483 -250 695 -98 125 -219 227 -365 307 -92 50 -243 102 -360 123 -78 14
-306 13 -384 -1z m321 -484 c69 -12 194 -71 252 -117 161 -129 240 -281 246
-478 6 -199 -62 -358 -210 -492 -123 -111 -266 -163 -437 -158 -220 6 -403
113 -518 305 -127 212 -124 459 10 664 143 219 394 325 657 276z"/>
<path d="M1957 5884 c-1 -1 -29 -4 -62 -7 -95 -10 -162 -25 -275 -63 -277 -94
-512 -274 -672 -517 -105 -160 -169 -323 -205 -522 -10 -56 -12 -310 -3 -365
6 -30 12 -73 16 -95 18 -123 107 -336 197 -471 190 -285 528 -506 857 -559 19
-3 67 -12 105 -20 39 -8 81 -16 95 -18 96 -18 115 -21 215 -41 92 -18 115 -23
363 -71 182 -35 209 -40 267 -50 17 -3 37 -8 45 -10 8 -2 31 -7 50 -10 29 -5
288 -54 365 -69 11 -2 92 -18 180 -35 88 -16 171 -32 185 -35 32 -6 211 -40
320 -61 47 -9 140 -27 208 -41 68 -13 136 -26 150 -29 147 -26 620 -119 667
-131 219 -56 405 -261 440 -485 12 -76 7 -223 -10 -290 -57 -221 -220 -381
-445 -439 -68 -18 -128 -19 -1038 -20 -530 0 -967 -2 -971 -4 -3 -2 -6 -161
-6 -353 l0 -348 1010 0 c923 1 1018 2 1099 19 340 67 609 234 814 503 123 161
223 393 246 571 3 23 9 61 12 85 11 80 5 295 -11 392 -98 572 -543 1005 -1120
1090 -22 3 -47 8 -55 10 -15 5 -218 44 -255 50 -11 1 -57 10 -103 20 -45 9
-94 18 -107 21 -14 2 -35 6 -47 8 -33 7 -209 40 -393 75 -88 17 -171 33 -185
36 -14 3 -106 21 -205 40 -99 19 -252 48 -340 65 -88 17 -230 44 -315 60 -85
17 -166 32 -180 35 -48 9 -78 15 -365 70 -537 103 -600 116 -645 131 -175 59
-319 204 -381 384 -32 93 -35 252 -7 346 52 175 154 296 314 375 138 67 108
66 1221 65 l1002 -1 -2 355 -2 355 -1018 0 c-560 0 -1019 0 -1020 -1z"/>
<path d="M1107 2944 c-1 -1 -31 -5 -67 -8 -36 -4 -94 -14 -130 -22 -59 -13
-80 -19 -145 -43 -150 -56 -292 -148 -416 -271 -228 -226 -343 -498 -344 -815
0 -156 4 -194 35 -313 35 -140 136 -348 207 -427 69 -78 175 -198 268 -305 61
-68 117 -132 125 -140 8 -9 42 -47 76 -85 34 -39 150 -170 259 -293 l197 -222
42 46 c46 53 55 63 134 154 31 35 81 92 111 125 30 33 68 76 86 95 17 19 118
134 225 255 193 218 228 257 289 325 53 58 139 192 180 281 38 84 83 240 96
334 8 56 8 267 1 293 -3 9 -7 38 -11 64 -8 68 -49 205 -84 281 -135 295 -389
527 -687 626 -50 17 -108 33 -130 37 -21 3 -42 8 -45 10 -13 8 -264 25 -272
18z m238 -515 c39 -11 97 -35 130 -52 74 -39 199 -162 242 -237 89 -157 110
-351 54 -513 -75 -218 -244 -370 -466 -420 -77 -18 -212 -15 -294 7 -194 50
-367 212 -437 408 -23 64 -29 113 -29 218 3 406 408 705 800 589z"/>
</g>
</svg>
