<svg viewBox="0 0 20 20" xmlns="http://www.w3.org/2000/svg"><path d="m7.716 2.016-.748 1.109h5.711l-.748-1.11a.322.322 0 0 0-.264-.14h-3.69a.313.313 0 0 0-.265.14h.004Zm5.79-1.04 1.446 2.149h2.75a.94.94 0 0 1 .945.938.94.94 0 0 1-.945.937h-.315v11.875c0 1.727-1.41 3.125-3.152 3.125H5.412C3.67 20 2.26 18.602 2.26 16.875V5h-.316A.94.94 0 0 1 1 4.062a.94.94 0 0 1 .945-.937h2.75L6.14.973A2.22 2.22 0 0 1 7.976 0h3.691a2.22 2.22 0 0 1 1.836.973l.004.004ZM4.152 5v11.875c0 .691.564 1.25 1.26 1.25h8.824c.697 0 1.26-.559 1.26-1.25V5H4.152Zm3.152 2.5v8.125a.63.63 0 0 1-1.261 0V7.5a.63.63 0 0 1 1.26 0Zm3.15 0v8.125a.63.63 0 0 1-1.26 0V7.5a.63.63 0 0 1 1.26 0Zm3.152 0v8.125a.63.63 0 0 1-1.26 0V7.5a.63.63 0 0 1 1.26 0Z" fill="currentColor"/></svg>