<svg width="14" height="20" viewBox="0 0 14 20" xmlns="http://www.w3.org/2000/svg"><g clip-path="url(#a)"><path d="M1.667 13.75c-.921 0-1.667.7-1.667 1.563v1.874c0 .864.746 1.563 1.667 1.563h2c.92 0 1.666-.7 1.666-1.563v-1.875c0-.863-.745-1.562-1.666-1.562h-2Zm8 0c-.921 0-1.667.7-1.667 1.563v1.874c0 .864.746 1.563 1.667 1.563h2c.92 0 1.666-.7 1.666-1.563v-1.875c0-.863-.745-1.562-1.666-1.562h-2Zm-8-1.25h2c.92 0 1.666-.7 1.666-1.563V9.063c0-.864-.745-1.563-1.666-1.563h-2C.746 7.5 0 8.2 0 9.063v1.874c0 .864.746 1.563 1.667 1.563Zm8-5C8.746 7.5 8 8.2 8 9.063v1.874c0 .864.746 1.563 1.667 1.563h2c.92 0 1.666-.7 1.666-1.563V9.063c0-.864-.745-1.563-1.666-1.563h-2Zm-8-1.25h2c.92 0 1.666-.7 1.666-1.563V2.813c0-.863-.745-1.562-1.666-1.562h-2C.746 1.25 0 1.95 0 2.813v1.874C0 5.551.746 6.25 1.667 6.25Zm8-5C8.746 1.25 8 1.95 8 2.813v1.874c0 .864.746 1.563 1.667 1.563h2c.92 0 1.666-.7 1.666-1.563V2.813c0-.863-.745-1.562-1.666-1.562h-2Z" fill="currentColor"/></g></svg>