<svg viewBox="0 0 20 20" xmlns="http://www.w3.org/2000/svg"><path d="M1.871 2A.869.869 0 0 0 1 2.871v1.742c0 .483.388.87.871.87h1.742a.869.869 0 0 0 .87-.87V2.87A.869.869 0 0 0 3.614 2H1.87Zm5.516.58a1.16 1.16 0 1 0 0 2.323H17.84a1.16 1.16 0 1 0 0-2.322H7.387Zm0 5.807a1.16 1.16 0 1 0 0 2.323H17.84a1.16 1.16 0 1 0 0-2.323H7.387Zm0 5.806a1.16 1.16 0 1 0 0 2.323H17.84a1.16 1.16 0 1 0 0-2.323H7.387ZM1 8.678v1.742c0 .483.388.871.871.871h1.742a.869.869 0 0 0 .87-.87V8.676a.869.869 0 0 0-.87-.87H1.87a.869.869 0 0 0-.871.87Zm.871 4.936a.869.869 0 0 0-.871.87v1.743c0 .483.388.87.871.87h1.742a.869.869 0 0 0 .87-.87v-1.742a.869.869 0 0 0-.87-.871H1.87Z" fill="currentColor"/></svg>