<svg viewBox="0 0 80 80" fill="none" xmlns="http://www.w3.org/2000/svg"><path d="M66.609 0c-7.41 0-13.391 6.02-13.391 13.391v.309c.038 2.277.694 4.438 1.736 6.329.502.849 1.042 1.66 1.698 2.354l9.957 11.23 9.956-11.23c.656-.733 1.235-1.505 1.698-2.354 1.08-1.852 1.698-4.014 1.737-6.329v-.309C80 6.021 74.018 0 66.609 0Zm0 18.717a5.336 5.336 0 0 1-5.326-5.326c0-2.933 2.393-5.287 5.326-5.287a5.336 5.336 0 0 1 5.325 5.326c0 2.933-2.392 5.287-5.325 5.287ZM55.687 71.742H34.231v-8.105h21.456c3.782 0 6.87-3.087 6.87-6.869v-.579c0-3.28-2.355-6.097-5.558-6.753l-36.546-9.957c-7.023-1.35-12.117-7.525-12.117-14.703 0-8.259 6.715-14.974 14.973-14.974h22.383v8.104H23.31c-3.782 0-6.87 3.088-6.87 6.87 0 3.28 2.355 6.097 5.558 6.753l36.546 9.995c7.024 1.351 12.118 7.526 12.118 14.704v.579c0 8.22-6.715 14.934-14.974 14.934Z" fill="currentColor"/><path d="M13.391 46.348C6.021 46.348 0 52.368 0 59.778v.309c.039 2.277.695 4.438 1.737 6.329.501.849 1.042 1.66 1.698 2.354L13.39 80l9.957-11.23c.656-.733 1.235-1.505 1.698-2.354 1.08-1.853 1.698-4.014 1.736-6.33v-.308c.039-7.41-5.981-13.43-13.39-13.43Zm0 18.756a5.336 5.336 0 0 1-5.325-5.326 5.336 5.336 0 0 1 5.325-5.325 5.336 5.336 0 0 1 5.326 5.325 5.312 5.312 0 0 1-5.326 5.326Z" fill="currentColor"/></svg>